<svg id="icons" xmlns="http://www.w3.org/2000/svg" viewBox="0 0 64 64"><title>architecture-building-office-skyscraper-house</title><g id="architecture-building-office-skyscraper-house"><polygon points="38 5 38 9 26 9 26 5 32 5 38 5" fill="#b4d8ed"/><polygon points="44 29 44 63 20 63 20 29 20 9 26 9 38 9 44 9 44 29" fill="#fff"/><polygon points="56 29 56 63 44 63 44 29 50 29 56 29" fill="#d6edfc"/><polygon points="20 29 20 63 8 63 8 29 14 29 20 29" fill="#d6edfc"/><polyline points="38 9 44 9 44 29" fill="none" stroke="#49789c" stroke-linecap="round" stroke-linejoin="round" stroke-width="2"/><polyline points="20 29 20 9 26 9" fill="none" stroke="#49789c" stroke-linecap="round" stroke-linejoin="round" stroke-width="2"/><line x1="44" y1="63" x2="20" y2="63" fill="none" stroke="#49789c" stroke-linecap="round" stroke-linejoin="round" stroke-width="2"/><polygon points="38 9 26 9 26 5 32 5 38 5 38 9" fill="none" stroke="#49789c" stroke-linecap="round" stroke-linejoin="round" stroke-width="2"/><line x1="32" y1="1" x2="32" y2="5" fill="none" stroke="#49789c" stroke-linecap="round" stroke-linejoin="round" stroke-width="2"/><polyline points="25 14 27 14 27 58 25 58" fill="none" stroke="#49789c" stroke-linecap="square" stroke-linejoin="round" stroke-width="2"/><polygon points="44 63 56 63 56 29 50 29 44 29 44 63" fill="none" stroke="#49789c" stroke-linecap="round" stroke-linejoin="round" stroke-width="2"/><polyline points="49 34 51 34 51 58" fill="none" stroke="#49789c" stroke-linecap="square" stroke-linejoin="round" stroke-width="2"/><line x1="50" y1="25" x2="50" y2="29" fill="none" stroke="#49789c" stroke-linecap="round" stroke-linejoin="round" stroke-width="2"/><polygon points="20 63 8 63 8 29 14 29 20 29 20 63" fill="none" stroke="#49789c" stroke-linecap="round" stroke-linejoin="round" stroke-width="2"/><polyline points="13 34 15 34 15 58" fill="none" stroke="#49789c" stroke-linecap="square" stroke-linejoin="round" stroke-width="2"/><line x1="14" y1="25" x2="14" y2="29" fill="none" stroke="#49789c" stroke-linecap="round" stroke-linejoin="round" stroke-width="2"/><polyline points="31 14 33 14 33 58 31 58" fill="none" stroke="#49789c" stroke-linecap="square" stroke-linejoin="round" stroke-width="2"/><polyline points="37 14 39 14 39 58 37 58" fill="none" stroke="#49789c" stroke-linecap="square" stroke-linejoin="round" stroke-width="2"/></g></svg>